<?xml version="1.0" encoding="UTF-8"?>
<svg id="Layer_1" data-name="Layer 1" xmlns="http://www.w3.org/2000/svg" viewBox="0 0 1080 1080">
  <defs>
    <style>
      .cls-1 {
        fill: #e9e9f2;
      }
    </style>
  </defs>
  <g>
    <g>
      <path class="cls-1" d="M175.73,460.02c18.15,0,28.56,8.97,28.56,24.64s-10.41,25.77-28.56,25.77h-16.6v21.76h-12.16v-72.17h28.77ZM159.13,499.51h16.08c11.14,0,17.42-4.74,17.42-14.54s-6.29-14.02-17.42-14.02h-16.08v28.56Z"/>
      <path class="cls-1" d="M246.49,525.49c-3.92,4.85-10.2,7.22-18.15,7.22-11.85,0-19.28-7.32-19.28-17.01s7.53-16.39,20.72-16.5h16.6v-1.65c0-6.91-4.43-11.03-13.1-11.03-5.26,0-10.72,1.86-16.19,5.57l-4.84-8.25c7.63-4.54,13.2-6.9,23.61-6.9,14.12,0,22.07,7.22,22.17,19.28l.1,35.98h-11.65v-6.7ZM246.39,512.92v-5.05h-14.85c-7.74,0-11.34,2.07-11.34,7.32,0,4.95,4.02,8.15,10.62,8.15,8.45,0,14.95-4.44,15.57-10.41Z"/>
      <path class="cls-1" d="M326.52,498.07v34.13h-11.86v-30.83c0-8.25-4.95-13.3-13.2-13.3-9.07.1-14.74,6.39-15.57,14.95v29.18h-11.85v-54.85h11.85v10.51c3.92-7.63,10.93-10.93,20.21-10.93,12.78,0,20.41,8.04,20.41,21.13Z"/>
      <path class="cls-1" d="M373.47,528.69c-4.33,2.58-8.87,4.02-13.51,4.02-8.25,0-15.36-4.74-15.36-15.98v-28.46h-7.74v-8.87h7.74v-15.05h11.75v15.05h16.19v8.87h-16.19v26.29c0,5.67,2.17,7.42,5.88,7.42,2.47,0,5.05-.82,8.25-2.37l2.99,9.07Z"/>
      <path class="cls-1" d="M417.31,525.49c-3.92,4.85-10.2,7.22-18.15,7.22-11.85,0-19.28-7.32-19.28-17.01s7.53-16.39,20.72-16.5h16.6v-1.65c0-6.91-4.44-11.03-13.1-11.03-5.26,0-10.72,1.86-16.19,5.57l-4.85-8.25c7.63-4.54,13.2-6.9,23.61-6.9,14.12,0,22.07,7.22,22.17,19.28l.1,35.98h-11.65v-6.7ZM417.21,512.92v-5.05h-14.85c-7.73,0-11.34,2.07-11.34,7.32,0,4.95,4.02,8.15,10.62,8.15,8.45,0,14.95-4.44,15.57-10.41Z"/>
      <path class="cls-1" d="M456.73,488.27c3.71-7.42,10.31-11.34,18.97-11.34v11.34c-11.03-.62-18.04,5.88-18.97,15.26v28.66h-11.85v-54.85h11.85v10.93Z"/>
      <path class="cls-1" d="M537.59,504.77c0,16.5-11.65,27.84-28.56,27.84s-28.66-11.34-28.66-27.84,11.65-27.83,28.66-27.83,28.56,11.24,28.56,27.83ZM492.22,504.87c0,10.62,6.91,17.84,16.81,17.84s16.7-7.22,16.7-17.84-6.91-17.73-16.7-17.73-16.81,7.22-16.81,17.73Z"/>
      <path class="cls-1" d="M581.03,528.69c-4.33,2.58-8.87,4.02-13.51,4.02-8.25,0-15.36-4.74-15.36-15.98v-28.46h-7.74v-8.87h7.74v-15.05h11.75v15.05h16.19v8.87h-16.19v26.29c0,5.67,2.17,7.42,5.88,7.42,2.47,0,5.05-.82,8.25-2.37l2.99,9.07Z"/>
      <path class="cls-1" d="M623.01,528.69c-4.33,2.58-8.87,4.02-13.51,4.02-8.25,0-15.36-4.74-15.36-15.98v-28.46h-7.74v-8.87h7.74v-15.05h11.75v15.05h16.19v8.87h-16.19v26.29c0,5.67,2.17,7.42,5.88,7.42,2.47,0,5.05-.82,8.25-2.37l2.99,9.07Z"/>
      <path class="cls-1" d="M685.41,504.77c0,16.5-11.65,27.84-28.56,27.84s-28.66-11.34-28.66-27.84,11.65-27.83,28.66-27.83,28.56,11.24,28.56,27.83ZM640.04,504.87c0,10.62,6.91,17.84,16.81,17.84s16.7-7.22,16.7-17.84-6.9-17.73-16.7-17.73-16.81,7.22-16.81,17.73Z"/>
      <path class="cls-1" d="M768.56,521.16v11.03h-43.41v-72.17h12.16v61.14h31.24Z"/>
      <path class="cls-1" d="M827.77,509.31h-41.45c1.86,8.45,8.35,13.71,17.01,13.71,5.98,0,11.44-2.27,15.46-6.39l6.29,6.7c-5.36,5.88-13.2,9.28-22.68,9.28-16.91,0-28.04-11.24-28.04-27.73s11.44-27.84,27.73-27.94c19.28,0,27.12,12.58,25.67,32.37ZM817.46,500.65c-.41-8.87-6.29-14.23-15.26-14.23s-14.75,5.47-16.08,14.23h31.34ZM794.57,469.51l10.93-15.26,12.16,5.15-12.58,10.1h-10.51Z"/>
      <path class="cls-1" d="M852.03,488.27c3.71-7.42,10.31-11.34,18.97-11.34v11.34c-11.03-.62-18.04,5.88-18.97,15.26v28.66h-11.85v-54.85h11.85v10.93Z"/>
      <path class="cls-1" d="M915.99,528.69c-4.33,2.58-8.87,4.02-13.51,4.02-8.25,0-15.36-4.74-15.36-15.98v-28.46h-7.74v-8.87h7.74v-15.05h11.75v15.05h16.19v8.87h-16.19v26.29c0,5.67,2.17,7.42,5.88,7.42,2.47,0,5.05-.82,8.25-2.37l2.99,9.07Z"/>
      <path class="cls-1" d="M982.51,504.77c0,16.5-11.65,27.84-28.56,27.84s-28.66-11.34-28.66-27.84,11.65-27.83,28.66-27.83,28.56,11.24,28.56,27.83ZM937.14,504.87c0,10.62,6.91,17.84,16.81,17.84s16.7-7.22,16.7-17.84-6.9-17.73-16.7-17.73-16.81,7.22-16.81,17.73Z"/>
      <path class="cls-1" d="M1006.77,488.27c3.71-7.42,10.31-11.34,18.97-11.34v11.34c-11.03-.62-18.04,5.88-18.97,15.26v28.66h-11.85v-54.85h11.85v10.93Z"/>
      <path class="cls-1" d="M1068.35,525.49c-3.92,4.85-10.2,7.22-18.15,7.22-11.85,0-19.28-7.32-19.28-17.01s7.53-16.39,20.72-16.5h16.6v-1.65c0-6.91-4.43-11.03-13.1-11.03-5.26,0-10.72,1.86-16.19,5.57l-4.84-8.25c7.63-4.54,13.2-6.9,23.61-6.9,14.12,0,22.07,7.22,22.17,19.28l.1,35.98h-11.65v-6.7ZM1068.25,512.92v-5.05h-14.85c-7.74,0-11.34,2.07-11.34,7.32,0,4.95,4.02,8.15,10.62,8.15,8.45,0,14.95-4.44,15.57-10.41Z"/>
    </g>
    <g>
      <g>
        <path class="cls-1" d="M146.86,569.59h3.5v44.96h27.7v3.16h-31.2v-48.12Z"/>
        <path class="cls-1" d="M215.68,600.59h-30.86c.34,8.52,6.6,14.3,15.19,14.3,4.53,0,8.73-1.65,11.48-5.02l1.99,2.27c-3.16,3.85-8.11,5.84-13.54,5.84-10.86,0-18.49-7.56-18.49-18.21s7.36-18.21,17.18-18.21,17.11,7.42,17.11,18.07c0,.28-.07.62-.07.97ZM184.88,597.91h27.49c-.48-7.77-6.12-13.34-13.75-13.34s-13.2,5.5-13.75,13.34Z"/>
        <path class="cls-1" d="M258.73,581.83v32.03c0,12.03-5.84,17.46-17.39,17.46-6.53,0-12.79-2.06-16.42-5.7l1.86-2.61c3.57,3.3,8.73,5.22,14.5,5.22,9.55,0,14.02-4.4,14.02-13.95v-6.05c-2.96,5.23-8.45,8.18-14.91,8.18-10.17,0-17.87-7.22-17.87-17.46s7.7-17.39,17.87-17.39c6.6,0,12.16,3.02,15.05,8.39v-8.11h3.3ZM255.36,598.94c0-8.46-6.19-14.3-14.71-14.3s-14.64,5.84-14.64,14.3,6.18,14.36,14.64,14.36,14.71-5.91,14.71-14.36Z"/>
        <path class="cls-1" d="M299.24,594.96v22.75h-3.3v-6.39c-2.27,4.13-6.67,6.67-12.92,6.67-8.04,0-12.92-4.12-12.92-10.24,0-5.43,3.44-10.04,13.4-10.04h12.3v-2.89c0-6.67-3.64-10.24-10.65-10.24-4.95,0-9.41,1.86-12.37,4.54l-1.72-2.47c3.58-3.16,8.8-5.09,14.37-5.09,8.87,0,13.81,4.53,13.81,13.4ZM295.8,607.12v-6.74h-12.23c-7.43,0-10.04,3.09-10.04,7.22,0,4.67,3.64,7.56,9.96,7.56s10.24-2.89,12.3-8.04Z"/>
        <path class="cls-1" d="M313.42,566.71h3.43v51h-3.43v-51Z"/>
        <path class="cls-1" d="M394.7,572.76h-17.32v-3.16h38.15v3.16h-17.32v44.95h-3.5v-44.95Z"/>
        <path class="cls-1" d="M447.02,594.96v22.75h-3.3v-6.39c-2.27,4.13-6.67,6.67-12.92,6.67-8.04,0-12.92-4.12-12.92-10.24,0-5.43,3.44-10.04,13.4-10.04h12.3v-2.89c0-6.67-3.64-10.24-10.65-10.24-4.95,0-9.41,1.86-12.37,4.54l-1.72-2.47c3.58-3.16,8.8-5.09,14.37-5.09,8.87,0,13.81,4.53,13.81,13.4ZM443.58,607.12v-6.74h-12.23c-7.43,0-10.04,3.09-10.04,7.22,0,4.67,3.64,7.56,9.96,7.56s10.24-2.89,12.3-8.04Z"/>
        <path class="cls-1" d="M484.02,617.71l-12.3-16.01-12.3,16.01h-3.92l14.23-18.49-13.47-17.39h3.92l11.55,14.92,11.55-14.92h3.85l-13.47,17.39,14.43,18.49h-4.05Z"/>
        <path class="cls-1" d="M545.43,604.17h-27.9l-6.12,13.54h-3.78l22.13-48.12h3.5l22.13,48.12h-3.78l-6.19-13.54ZM544.13,601.21l-12.65-27.77-12.58,27.77h25.23Z"/>
        <path class="cls-1" d="M558.79,599.77c0-10.72,7.63-18.21,18.15-18.21,5.7,0,10.66,2.2,13.61,6.6l-2.54,1.86c-2.61-3.64-6.6-5.36-11.07-5.36-8.45,0-14.64,6.05-14.64,15.12s6.18,15.12,14.64,15.12c4.47,0,8.46-1.72,11.07-5.36l2.54,1.86c-2.96,4.33-7.91,6.6-13.61,6.6-10.51,0-18.15-7.56-18.15-18.21Z"/>
        <path class="cls-1" d="M596.34,599.77c0-10.72,7.63-18.21,18.15-18.21,5.7,0,10.66,2.2,13.61,6.6l-2.54,1.86c-2.61-3.64-6.6-5.36-11.07-5.36-8.45,0-14.64,6.05-14.64,15.12s6.18,15.12,14.64,15.12c4.47,0,8.46-1.72,11.07-5.36l2.54,1.86c-2.96,4.33-7.91,6.6-13.61,6.6-10.51,0-18.15-7.56-18.15-18.21Z"/>
        <path class="cls-1" d="M633.89,599.77c0-10.65,7.63-18.21,17.94-18.21s17.94,7.56,17.94,18.21-7.63,18.21-17.94,18.21-17.94-7.56-17.94-18.21ZM666.27,599.77c0-9-6.19-15.12-14.44-15.12s-14.43,6.12-14.43,15.12,6.18,15.12,14.43,15.12,14.44-6.12,14.44-15.12Z"/>
        <path class="cls-1" d="M711.86,581.83v35.88h-3.3v-7.7c-2.34,5.02-7.22,7.97-13.54,7.97-9.14,0-14.98-5.15-14.98-15.19v-20.97h3.43v20.69c0,8.11,4.33,12.37,11.82,12.37,8.11,0,13.13-5.43,13.13-13.95v-19.11h3.44Z"/>
        <path class="cls-1" d="M758.55,596.75v20.96h-3.44v-20.69c0-8.11-4.33-12.37-11.61-12.37-8.45,0-13.61,5.43-13.61,13.95v19.11h-3.43v-35.88h3.3v7.77c2.41-5.02,7.42-8.04,14.23-8.04,8.73,0,14.57,5.15,14.57,15.19Z"/>
        <path class="cls-1" d="M790.54,615.44c-1.79,1.72-4.68,2.54-7.35,2.54-6.33,0-9.76-3.71-9.76-9.76v-23.44h-6.6v-2.96h6.6v-7.84h3.43v7.84h11.41v2.96h-11.41v23.09c0,4.6,2.27,7.15,6.67,7.15,2.13,0,4.12-.68,5.57-1.99l1.44,2.41Z"/>
        <path class="cls-1" d="M826.02,594.96v22.75h-3.3v-6.39c-2.27,4.13-6.67,6.67-12.92,6.67-8.04,0-12.92-4.12-12.92-10.24,0-5.43,3.44-10.04,13.4-10.04h12.3v-2.89c0-6.67-3.64-10.24-10.65-10.24-4.95,0-9.41,1.86-12.37,4.54l-1.72-2.47c3.58-3.16,8.8-5.09,14.37-5.09,8.87,0,13.81,4.53,13.81,13.4ZM822.59,607.12v-6.74h-12.23c-7.43,0-10.04,3.09-10.04,7.22,0,4.67,3.64,7.56,9.96,7.56s10.24-2.89,12.3-8.04Z"/>
        <path class="cls-1" d="M872.3,596.75v20.96h-3.44v-20.69c0-8.11-4.33-12.37-11.61-12.37-8.45,0-13.61,5.43-13.61,13.95v19.11h-3.43v-35.88h3.3v7.77c2.41-5.02,7.42-8.04,14.23-8.04,8.73,0,14.57,5.15,14.57,15.19Z"/>
        <path class="cls-1" d="M904.29,615.44c-1.79,1.72-4.68,2.54-7.35,2.54-6.33,0-9.76-3.71-9.76-9.76v-23.44h-6.6v-2.96h6.6v-7.84h3.43v7.84h11.41v2.96h-11.41v23.09c0,4.6,2.27,7.15,6.67,7.15,2.13,0,4.12-.68,5.57-1.99l1.44,2.41Z"/>
        <path class="cls-1" d="M908.56,613.38l1.58-2.75c2.75,2.34,7.63,4.33,12.92,4.33,7.56,0,10.59-2.68,10.59-6.74,0-10.45-23.78-2.75-23.78-16.84,0-5.43,4.54-9.83,13.61-9.83,4.54,0,9.49,1.37,12.3,3.5l-1.58,2.75c-3.03-2.2-6.94-3.23-10.79-3.23-7.01,0-10.1,2.89-10.1,6.74,0,10.79,23.78,3.16,23.78,16.84,0,5.84-5.02,9.83-14.16,9.83-5.91,0-11.55-1.99-14.36-4.6Z"/>
      </g>
      <rect class="cls-1" x="350.17" y="563.93" width="2.77" height="60.18"/>
    </g>
  </g>
  <g>
    <path class="cls-1" d="M126.99,448.68H0v172.2h127l-.02-172.2ZM119.3,613.08H7.8v-156.58h111.49v156.58Z"/>
    <g>
      <path class="cls-1" d="M18.43,598.7l.1-6.75c0-22.11,13.78-36.34,34.53-43.98l55.62-22.78v72.81l-90.25.71Z"/>
      <path class="cls-1" d="M108.68,470.92l-.29,8.62c0,22.11-13.78,36.34-34.53,43.98l-55.43,22.78v-74.67l90.25-.71Z"/>
    </g>
  </g>
</svg>